<svg width="436" height="784" viewBox="0 0 436 784" fill="none" xmlns="http://www.w3.org/2000/svg">
<path d="M255.997 26.2285C262.297 22.4685 268.707 20.3885 275.217 19.9785C278.137 22.1185 273.067 37.7385 271.427 40.6985C229.497 123.869 220.667 224.849 263.997 309.229C268.957 314.149 278.117 334.249 283.607 342.119C312.667 383.809 353.937 418.379 378.997 463.229C405.917 519.409 423.167 588.239 402.337 649.729C395.987 668.479 386.237 683.949 374.997 699.229C329.617 751.779 256.237 764.948 190.787 748.938C132.117 734.588 74.3272 678.949 48.9972 625.229C31.7572 584.729 22.8671 542.909 22.6271 497.969C22.1571 408.079 42.1442 331.646 88.6135 237.37C113.952 185.964 139.057 151.729 169.037 113.769C193.667 82.5885 221.827 47.0985 255.997 26.2285Z" fill="#96C2D9"/>
<path d="M271.445 0.197819C280.805 0.357819 294.465 7.64794 295.905 17.8179C298.605 36.8579 281.606 66.1277 274.506 84.2476C246.156 156.627 249.555 217.107 278.245 288.477C302.155 347.957 359.195 389.978 393.405 444.318C457.495 546.108 456.065 698.818 338.665 760.408C212.295 826.707 67.8048 741.648 18.9948 619.238V619.227C-29.9449 472.847 24.4449 312.787 96.9948 184.227C123.235 140.327 153.445 98.5173 188.485 61.2174C205.605 42.9774 245.785 -0.251954 271.445 0.197819ZM275.216 19.9781C268.706 20.3881 262.295 22.4681 255.995 26.2281C221.825 47.0981 193.665 82.5882 169.035 113.768C139.055 151.728 111.985 192.088 89.9948 235.228L89.9255 237.378C50.3555 317.008 22.1557 408.078 22.6257 497.968C22.8657 542.908 31.7549 584.728 48.9948 625.228C74.3248 678.948 132.115 734.588 190.785 748.938C256.235 764.948 329.615 751.778 374.995 699.228C386.235 683.948 395.986 668.478 402.336 649.728C423.165 588.238 405.915 519.408 378.995 463.228C353.935 418.378 312.665 383.808 283.605 342.119C278.115 334.249 268.955 314.148 263.995 309.228C220.665 224.848 229.496 123.868 271.425 40.6978C273.066 37.7368 278.135 22.1184 275.216 19.9781Z" fill="#7CADC7"/>
<path d="M167.735 169.469C175.435 168.209 178.185 171.379 178.995 178.729C181.325 199.749 174.155 225.259 168.915 245.659C160.595 278.049 149.615 312.229 137.745 343.489C130.615 362.269 115.185 404.679 95.9848 412.729C82.2648 418.479 76.7048 397.809 75.9548 387.779C71.9248 334.039 111.785 238.469 142.185 193.929C147.595 185.999 157.865 171.089 167.735 169.479V169.469Z" fill="#FEF8E8"/>
<path d="M349.654 636.899C371.494 611.059 375.734 578.139 375.994 545.239C382.654 545.169 384.594 559.379 385.694 565.029C398.714 631.809 369.144 686.749 309.844 716.589C269.174 737.049 201.994 735.059 167.094 703.639C165.054 701.799 155.924 690.629 156.014 688.729C156.064 687.629 158.424 687.279 159.464 687.169C164.464 686.649 175.514 691.259 181.594 692.139C251.784 702.269 303.594 691.399 349.654 636.899Z" fill="#7CADC7"/>
<path d="M81.755 446.488C102.905 443.838 103.205 480.988 101.975 494.718C101.065 504.878 95.335 525.628 84.535 529.288C72.665 533.308 67.955 525.468 63.965 515.758C56.135 496.728 54.155 449.948 81.755 446.498V446.488Z" fill="#FEF8E8"/>
</svg>
