<svg width="822" height="770" viewBox="0 0 822 770" fill="none" xmlns="http://www.w3.org/2000/svg">
<path d="M564.778 137.195C568.448 136.455 571.338 134.075 574.988 132.915C607.478 122.675 635.318 143.315 634.268 177.195L672.378 131.255C672.898 129.195 668.138 127.165 666.778 125.695C642.578 99.4147 661.868 53.9747 699.008 59.4647C702.398 59.9647 705.088 61.1247 707.758 63.2047C734.018 -0.785301 822.798 40.9847 784.788 101.715C802.708 112.135 803.788 135.725 791.278 151.225C777.928 167.765 753.258 173.885 733.508 165.975C726.428 163.135 723.298 158.515 717.418 154.295L655.778 198.715C671.308 196.495 686.458 195.345 702.158 197.325C824.938 212.825 865.958 363.735 764.088 436.025C749.078 446.675 731.618 454.705 713.778 459.225C757.218 499.225 731.788 562.485 673.778 564.225L724.338 611.175C725.828 611.505 731.928 600.875 733.808 598.745C749.768 580.685 785.008 575.315 796.958 600.535C805.358 618.255 795.538 638.855 781.818 650.715C810.318 685.305 763.248 729.345 726.568 711.925C722.718 710.095 713.018 701.475 712.138 701.315C711.498 701.205 704.998 705.665 702.558 706.495C666.848 718.615 642.878 672.845 672.768 646.705L681.758 639.745L649.798 609.215C639.208 640.555 604.308 651.725 574.798 640.215C572.388 670.955 565.388 697.685 546.188 722.115C509.138 769.245 450.988 781.815 396.118 758.395C346.928 737.395 317.928 693.355 320.778 639.225C289.498 663.005 242.598 666.775 212.318 639.195C210.268 637.325 203.888 628.995 202.398 629.265C200.548 629.605 181.778 654.985 177.798 657.725C221.228 673.615 190.118 733.585 151.388 714.285C128.418 751.495 74.448 718.355 97.788 681.225C75.878 672.985 67.318 646.095 82.278 627.205C93.858 612.575 112.358 608.735 128.808 617.695C132.328 619.615 135.858 623.785 137.808 624.785C138.548 625.165 139.018 625.315 139.738 624.755L188.758 590.685C191.438 584.625 191.128 577.605 192.778 571.215C164.528 580.355 133.538 580.495 105.248 571.245C-23.662 529.085 32.038 357.775 149.408 344.335C151.448 344.105 158.498 345.235 157.758 342.735C157.198 340.855 154.918 337.925 154.018 335.465C149.528 323.165 147.478 311.315 147.318 298.165L104.268 279.225C101.168 288.055 97.268 294.875 89.688 300.615C64.738 319.515 30.368 305.195 35.748 272.235C-27.862 256.225 3.05799 164.235 63.768 189.205C64.528 160.265 100.558 147.615 122.708 163.775C143.758 179.135 145.538 211.095 127.798 229.705L156.298 256.195C158.298 256.595 157.518 255.745 157.998 254.925C160.898 250.015 163.218 244.205 166.358 239.275C192.048 199.025 239.458 187.275 282.778 206.195C269.758 104.975 346.148 -13.9353 458.138 1.3347C522.618 10.1347 564.788 75.0847 564.778 137.195Z" fill="#E26E18"/>
<path d="M710.33 133.204L615.35 204.204L624.94 190.304C636.42 174.914 649.4 160.694 661.29 145.654C665.47 140.364 683.98 117.934 685.32 113.674C685.48 113.164 685.59 112.044 684.84 112.194C659.07 135.664 646.05 93.6143 665.42 77.7743C679.49 66.2743 692.29 76.5243 702.32 87.1843C700.4 60.8043 727.98 35.7543 753.36 50.6543C771.05 61.0343 768.59 85.4343 755.36 98.7143C753.04 101.044 740.36 108.754 740.35 109.684C740.32 112.104 751.56 110.974 753.82 111.194C763.33 112.144 770.48 117.634 770.77 127.674C771.66 158.014 714.03 165.844 710.32 133.184L710.33 133.204Z" fill="#F4BD3E"/>
<path d="M88.3395 221.214L138.869 267.244C140.169 270.174 134.969 281.974 135.319 286.204L75.3295 260.214C89.6495 277.044 68.8795 296.404 50.8495 295.204C39.0395 294.414 30.6695 282.804 36.4495 271.824C37.7095 269.424 49.7995 260.544 48.3195 259.204C30.3495 263.314 6.32947 257.594 1.57947 237.444C-4.99053 209.614 23.3395 191.804 48.3095 200.704C51.1795 201.724 64.4295 209.844 65.3195 209.184C61.2695 196.044 59.7295 184.284 71.9895 175.364C89.2495 162.804 110.349 175.944 112.309 195.704C113.909 211.824 107.389 228.844 88.3195 221.204L88.3395 221.214Z" fill="#F39E26"/>
<path d="M647.34 569.204L716.85 630.194C717.57 618.364 724.57 607.084 734.65 601.004C761.85 584.604 786.18 610.774 765.86 635.214C758.96 643.504 749.92 646.654 740.35 650.704C754.64 654.714 767.24 664.764 761.83 681.194C753.76 705.744 711.72 709.254 704.33 682.204C703.67 681.584 696.56 687.484 695.01 688.374C684.53 694.374 671.46 696.814 663.51 685.534C651.99 669.204 674.35 638.624 692.85 650.194L693.34 648.714C677.91 635.484 663.9 616.264 648.36 603.684C643.98 600.144 641.3 599.464 636.35 597.194C636.99 595.584 639.36 597.524 640.39 596.794C642.11 595.564 646.81 572.774 647.35 569.194L647.34 569.204Z" fill="#F39E26"/>
<path d="M178.33 603.204C178.87 608.084 183.81 613.234 181.82 618.154C172.96 629.574 163.5 640.644 154.93 652.284C152.68 655.344 144.12 666.264 143.36 668.714C142.34 672.034 148.31 667.764 150.08 667.434C157 666.144 164.44 668.744 168.87 674.174C184 692.704 150.44 719.394 140.46 698.584C139.73 697.054 138.84 690.154 136.87 691.204C135.66 691.854 132.7 704.444 130.55 707.884C113.34 735.424 73.87 704.774 100.35 680.684C101.29 679.824 107.97 676.434 106.35 675.194C92.13 675.314 76.63 667.154 75.32 651.734C72.76 621.554 113.73 615.264 120.85 643.184L178.34 603.194L178.33 603.204Z" fill="#F39E26"/>
<path d="M636.341 597.204C636.271 597.174 635.911 598.084 634.891 597.324C633.341 596.174 630.721 590.914 629.361 592.214C628.901 592.654 625.881 601.484 624.521 603.884C607.671 633.504 575.831 637.894 548.361 619.214C550.201 635.144 547.151 653.574 542.621 668.984C516.401 758.054 412.791 784.204 348.841 716.234C318.171 683.624 315.081 640.944 327.341 599.224L316.321 613.694C307.871 623.034 293.691 632.564 282.031 637.404C228.721 659.534 170.511 617.734 193.871 559.244C195.931 554.084 199.321 549.404 201.351 544.234L181.711 555.084C128.901 577.314 44.881 554.804 34.641 491.434C24.401 428.064 72.081 371.364 132.141 360.524C145.471 358.114 162.361 356.594 175.341 360.224C175.851 358.284 174.581 358.294 173.671 357.404C154.641 338.664 146.241 325.144 148.361 296.744C153.091 233.584 208.621 192.634 268.361 223.704C279.931 229.724 289.021 238.524 299.331 246.224C295.661 235.564 290.741 225.174 287.831 214.234C272.711 157.464 298.491 84.0543 343.871 47.2443C414.391 -9.94573 506.651 14.9643 531.601 103.454C538.491 127.874 538.411 149.604 532.351 174.214L545.871 157.254C561.481 143.454 590.811 138.764 603.151 158.904C617.601 182.494 599.201 214.774 586.341 235.204L614.821 222.194C698.201 189.604 798.951 239.484 792.381 336.754C789.381 381.134 755.701 420.954 716.011 438.384C696.301 447.044 675.681 449.114 654.341 450.224L673.211 457.834C694.111 468.684 712.551 492.274 705.641 517.014C696.991 547.934 654.261 558.594 628.351 543.214C625.971 546.124 644.431 566.274 647.341 569.214L648.781 572.494C649.051 575.114 643.251 597.744 641.491 598.314L636.341 597.214V597.204Z" fill="#F39E26"/>
<path d="M582.342 490.204C613.652 531.484 577.522 587.634 526.502 575.544C516.982 573.284 512.572 569.274 507.342 561.204C512.452 561.254 520.132 565.444 525.952 566.094C558.952 569.794 584.542 548.464 582.392 514.654C581.522 500.904 575.202 490.584 568.342 479.204C574.072 480.274 578.962 485.734 582.342 490.194V490.204Z" fill="#E26E18"/>
<path d="M317.342 302.204L327.392 303.654C338.592 306.324 347.032 314.044 356.332 320.204C339.292 269.234 341.152 210.624 373.932 166.294C410.892 116.304 477.042 115.574 490.072 183.974C493.872 203.904 492.172 217.474 489.612 236.994C489.352 238.934 488.282 240.694 491.342 240.214L491.952 242.254C487.752 244.454 474.992 260.754 486.302 254.234C531.282 219.634 571.702 256.374 544.862 306.344L545.262 307.094C602.312 270.334 658.942 302.924 612.202 367.224C636.022 352.764 645.402 316.744 626.972 294.784L627.342 292.214C639.652 294.554 648.422 294.654 659.272 301.784C690.972 322.644 687.422 359.214 664.292 385.424C641.732 410.994 606.242 423.564 573.352 429.224L589.232 435.824C603.772 442.474 623.622 462.344 617.132 479.504C611.512 494.354 589.012 487.394 578.342 482.224C576.452 483.994 585.272 487.864 582.332 490.214L579.982 490.444L573.662 483.944C606.712 533.184 559.572 589.144 507.332 561.214C506.682 561.214 506.032 561.064 505.402 561.264C501.952 594.304 490.542 634.174 457.692 649.074C418.432 666.874 382.932 637.374 367.162 602.894C354.062 574.254 350.952 542.314 354.332 511.234C352.422 509.824 347.602 517.444 346.362 518.754C329.432 536.524 301.882 563.114 275.892 561.244C235.922 558.374 253.072 499.954 266.322 478.704L263.332 478.224L262.722 476.064L269.722 468.354C241.662 489.944 176.472 500.974 176.012 449.134C175.652 407.764 227.772 381.964 264.632 390.204C215.262 343.534 262.162 277.504 323.482 310.644L316.982 304.524L317.342 302.224V302.204Z" fill="#F4BD3E"/>
<path d="M317.341 302.205C318.921 303.365 331.571 315.085 330.341 316.195C326.431 315.665 323.531 312.605 320.031 311.015C295.231 299.755 263.191 299.755 250.491 327.845C238.401 354.575 251.411 376.785 272.351 393.195C255.731 390.855 240.651 389.715 224.341 394.695C196.651 403.145 169.941 432.065 180.311 462.745C190.221 492.055 228.801 486.245 251.321 476.675C257.431 474.075 267.231 466.565 271.881 465.225C273.321 464.815 273.621 465.325 273.371 466.715C273.161 467.865 264.801 477.045 263.351 478.205C222.161 511.155 148.751 496.245 167.071 433.425C176.181 402.185 212.061 378.905 244.351 381.195C207.251 333.145 264.741 263.485 317.351 302.205H317.341Z" fill="#E26E18"/>
<path d="M491.342 240.205C495.182 237.615 505.962 233.065 510.542 231.905C548.812 222.245 573.412 259.615 557.342 293.195C557.812 293.595 566.762 288.385 568.362 287.725C586.452 280.265 611.892 277.405 627.342 292.205C630.992 295.695 637.322 307.915 638.102 312.945C641.762 336.465 629.392 363.845 606.352 372.195L617.152 356.505C644.382 309.605 614.142 280.555 565.822 299.175C562.072 300.625 542.812 311.565 541.352 310.195C544.962 299.445 550.602 289.335 551.332 277.685C553.212 247.545 528.142 235.795 502.372 246.715C494.082 250.225 488.002 257.405 479.362 259.195C478.912 255.605 480.552 251.815 482.522 248.865C483.792 246.965 489.542 241.425 491.352 240.195L491.342 240.205Z" fill="#E26E18"/>
</svg>
