<svg width="660" height="596" viewBox="0 0 660 596" fill="none" xmlns="http://www.w3.org/2000/svg">
<path d="M340.219 130.707C317.659 79.997 289.529 41.2971 238.309 16.0971C216.639 7.74705 195.689 0.787053 171.639 0.427052C141.659 -0.0229475 114.689 9.74705 88.3087 22.097C15.1087 63.4771 -11.3513 150.667 5.6187 230.287C31.4087 351.327 168.369 491.577 254.279 578.617C260.959 585.387 271.869 600.777 281.829 594.117C318.189 569.857 354.119 544.537 391.389 521.677C394.099 520.027 397.219 517.727 400.309 517.097L513.329 440.597C566.389 402.587 616.879 356.087 643.309 295.097C662.689 246.097 665.959 193.997 647.309 144.097C640.809 128.667 628.599 109.007 616.819 97.0871C612.939 93.1671 609.087 90.1339 603.769 86.1371C567.644 58.9886 537.469 53.7849 492.299 55.0871C430.144 56.8788 386.969 87.0571 348.809 124.097C346.959 125.897 344.009 131.147 341.789 132.087C340.009 132.837 340.499 131.327 340.219 130.707Z" fill="#E54B1C"/>
<path d="M262.309 544.097C262.669 542.377 264.699 539.157 265.879 538.117C266.559 537.517 270.239 535.257 271.809 534.087C286.749 522.977 301.289 513.637 316.809 503.097C320.209 500.787 323.069 496.447 328.309 497.087L327.339 495.157C334.429 492.097 339.989 486.997 345.829 482.077C353.219 477.437 360.499 472.867 367.759 468.047C370.449 466.267 373.059 462.367 373.409 462.127C374.009 461.717 375.879 463.237 376.209 463.027C376.349 462.937 376.679 460.947 377.759 460.077C379.629 458.577 387.159 452.947 388.739 452.027C390.559 450.957 392.749 451.327 393.229 451.017C393.309 450.967 392.539 449.677 392.939 449.097C395.819 444.897 399.669 446.287 400.849 445.217C402.209 443.987 402.149 441.587 403.259 440.607C403.799 440.127 405.599 440.807 406.579 440.177C408.829 438.737 419.569 428.537 420.459 428.267C421.579 427.927 423.299 428.747 426.039 426.647C427.729 425.347 429.889 424.047 430.109 423.867C430.579 423.487 435.879 414.087 436.319 417.617C436.479 418.867 435.469 421.287 437.299 421.067C436.759 413.197 440.169 416.207 442.149 414.937C442.829 414.497 442.619 412.047 443.539 411.297C444.359 410.617 446.459 410.857 447.609 410.137C448.669 409.477 449.609 406.867 451.289 405.547C456.079 401.807 465.269 393.927 469.469 391.157C470.359 390.567 469.539 392.907 473.379 389.687C479.329 384.687 486.219 380.347 491.929 375.647C499.349 369.527 508.049 359.197 515.809 354.037C517.109 353.177 519.179 353.157 519.299 353.027C519.409 352.917 518.099 351.167 518.739 350.087C519.499 348.817 522.629 348.107 523.639 347.107C530.559 340.257 555.959 313.057 560.069 305.817C560.769 304.577 559.999 302.707 560.329 302.057C560.359 301.987 561.309 302.647 561.769 302.447C568.139 299.737 563.089 299.687 564.449 297.227C564.599 296.957 566.399 296.547 567.159 295.447C576.489 281.817 586.509 266.377 593.229 251.267C600.359 235.227 606.029 216.907 611.219 199.297C612.179 196.057 611.879 183.747 612.309 183.067C612.389 182.937 614.559 184.397 615.279 182.567C611.659 180.347 612.109 180.527 611.569 177.047C611.409 175.997 608.959 175.447 612.279 174.067L614.289 177.067C615.739 173.077 613.559 170.297 616.319 167.077C618.269 166.737 616.829 169.577 617.319 170.067C617.689 170.437 623.459 168.947 624.299 170.077C625.459 171.637 621.189 175.017 619.309 174.057L621.299 172.077C612.099 170.277 619.339 174.187 619.309 178.067C623.279 178.797 619.819 175.527 620.299 175.077C622.439 173.097 622.189 176.977 622.299 177.057C625.009 178.857 623.869 174.067 624.799 174.057C626.289 175.167 626.249 181.427 625.289 182.077C625.039 182.247 618.079 180.397 620.299 183.057C620.609 183.427 622.689 182.247 622.299 184.047C621.479 184.017 619.369 184.967 619.319 185.567C619.299 185.867 620.099 187.077 621.249 186.407C621.319 186.367 621.159 185.267 621.969 185.077C623.829 184.617 626.269 185.527 628.289 184.077L627.309 191.087L629.309 190.577C630.839 201.197 630.159 211.877 630.289 222.587C630.309 224.277 629.649 227.027 631.309 228.077C621.379 318.967 533.729 390.127 464.219 439.487C406.829 480.237 346.539 517.017 288.349 556.617C278.049 562.207 269.459 552.147 262.599 545.747C262.129 545.307 262.429 544.187 262.299 544.067L262.309 544.097Z" fill="#DE6127"/>
<path d="M262.308 544.097C246.518 529.117 230.828 513.287 215.798 497.107C149.628 425.917 35.6283 300.327 29.2683 200.637C24.5783 127.047 57.2483 51.447 133.098 31.377C209.268 11.227 280.028 65.147 309.778 132.127C315.938 146.007 319.798 163.317 326.598 176.307C329.468 181.787 331.648 184.487 337.368 179.637C343.908 174.087 352.038 160.177 358.368 152.897C388.828 117.897 443.828 84.397 490.818 81.107C575.808 75.167 640.498 143.917 631.308 228.097C629.338 229.667 628.528 228.537 628.238 226.287L628.008 197.457C626.908 193.707 625.948 190.217 625.128 186.977C617.958 189.647 615.608 187.547 619.528 180.017C617.128 177.197 614.658 174.357 614.058 179.407C617.408 181.287 617.798 183.977 614.088 185.737C613.608 207.507 603.938 231.967 595.058 252.127C587.878 268.437 577.598 284.827 566.578 298.597C567.248 301.217 565.838 303.287 562.358 304.817C552.758 320.327 538.228 335.807 524.978 348.627C521.648 349.717 520.208 351.377 520.678 353.617C511.888 359.327 503.798 366.257 496.418 374.407C481.488 385.337 466.818 396.287 452.398 407.257C450.558 410.847 448.018 412.687 444.798 412.787C444.748 416.097 442.618 417.577 439.468 417.397C439.488 421.167 437.958 424.597 434.498 420.987C431.808 425.667 426.848 429.977 421.218 430.187L408.328 441.427C405.328 441.937 403.268 443.697 402.148 446.727C397.688 447.257 394.878 449.247 393.718 452.667C387.468 454.177 381.158 459.327 377.188 464.317C374.388 464.437 371.868 466.067 369.618 469.207C356.248 477.957 343.158 486.877 330.338 495.977C329.298 498.597 328.078 499.077 325.498 499.307C306.138 512.577 286.798 525.947 267.488 539.417C265.958 542.177 264.238 543.737 262.328 544.097H262.308Z" fill="#DE6127"/>
<ellipse cx="114.606" cy="108.551" rx="59.9862" ry="25.7291" transform="rotate(-47.0217 114.606 108.551)" fill="#EE8041"/>
</svg>
