<svg width="594" height="827" viewBox="0 0 594 827" fill="none" xmlns="http://www.w3.org/2000/svg">
<path d="M310.008 0.00206732C396.038 -0.297933 482.148 32.0521 538.748 97.7221C625.458 198.322 607.348 347.552 495.148 420.152C464.978 439.672 397.118 464.602 383.058 497.062C373.018 520.252 381.738 556.602 364.228 575.232C334.268 607.102 249.718 609.662 216.318 582.152C175.208 548.292 188.798 455.482 212.058 414.062C239.268 365.622 300.198 342.222 341.698 308.702C373.088 283.352 386.488 245.782 361.638 209.822C317.228 145.542 195.538 205.212 218.738 272.722C224.168 288.512 235.798 296.932 223.648 313.652C206.198 337.642 155.258 365.282 125.718 367.722C10.5277 377.202 -24.3823 270.612 16.3777 178.382C66.1777 65.6921 189.558 0.422067 310.008 0.00206732Z" fill="#915E3D"/>
<path d="M521.237 122.732C534.247 133.192 549.657 171.962 553.947 188.522C578.027 281.572 541.337 354.582 460.907 401.902C412.097 430.622 356.277 440.512 347.367 505.362C344.097 529.202 350.837 550.872 323.227 561.722C321.737 560.142 320.237 561.252 318.647 561.592C307.927 563.882 297.467 567.512 286.227 566.712L287.227 562.732L283.237 561.722V566.722C282.397 567.552 261.837 565.622 259.867 564.752C258.637 564.212 259.787 559.842 257.237 561.732C257.147 561.792 257.547 563.512 256.577 563.762C254.397 564.312 251.507 562.622 249.217 562.702L250.397 559.882C274.727 560.912 319.477 560.662 327.377 531.362C330.687 519.072 330.047 502.692 332.517 489.502C344.147 427.512 378.837 422.662 427.577 396.562C501.477 357.002 550.317 295.282 544.207 207.222C541.657 170.452 528.297 154.012 518.237 122.192C518.077 121.682 517.967 120.562 518.717 120.712C519.367 121.612 520.397 122.042 521.217 122.712L521.237 122.732Z" fill="#F39B34"/>
<path d="M521.238 122.732L520.138 123.392C536.338 159.762 548.498 190.222 546.518 231.422C541.828 328.912 468.468 383.462 386.398 419.432C353.178 437.592 340.128 455.632 333.858 493.852L330.488 526.622C327.688 548.882 307.078 557.462 287.408 560.782C288.928 561.712 289.188 563.262 288.848 564.832C299.638 564.082 310.228 562.142 320.608 559.002C322.838 558.642 323.858 559.472 323.238 561.732C302.828 569.762 254.978 571.472 236.278 559.192C206.508 539.632 218.908 465.952 231.058 438.062C264.358 361.642 377.048 342.422 396.728 278.732C419.498 205.042 352.118 140.312 279.858 146.862C224.468 151.872 168.118 199.622 185.978 259.502C188.428 267.712 198.408 283.862 197.028 290.992C196.018 296.232 188.228 301.882 184.128 305.132C139.268 340.742 57.0078 355.242 32.9578 288.502C5.19781 211.472 75.5578 119.332 135.918 77.9218C248.628 0.601822 426.338 4.80183 516.208 115.262C517.968 117.432 520.458 120.092 521.228 122.742L521.238 122.732Z" fill="#F39B34"/>
<path d="M194.008 75.0119C210.278 73.2119 226.838 81.5619 214.628 98.6319C180.688 116.442 149.718 136.192 124.258 165.262C117.668 172.782 106.578 192.962 101.198 197.202C92.7184 203.872 81.8684 199.312 80.2984 189.172C76.1784 162.582 108.888 125.152 127.758 108.762C143.128 95.4119 173.768 77.2519 194.008 75.0119Z" fill="#FBE7B3"/>
<path d="M280.028 610.032C365.298 603.892 442.188 684.852 396.398 767.402C340.378 868.412 150.288 835.312 160.238 709.242C165.018 648.702 224.618 614.012 280.018 610.022L280.028 610.032Z" fill="#915E3D"/>
<path d="M367.238 674.731C408.328 734.461 354.328 793.371 291.728 797.721C264.248 799.631 227.998 790.921 209.238 769.731C209.188 769.681 210.198 769.171 209.358 768.271C205.078 763.701 200.058 759.741 196.238 754.741C202.308 756.261 207.258 760.651 213.048 763.421C245.138 778.741 281.828 783.421 315.478 770.481C339.228 761.351 361.698 738.871 366.108 713.121C367.608 704.351 367.698 688.071 367.258 679.311C367.228 678.651 365.438 679.621 365.178 676.321C364.988 673.901 364.778 672.961 367.238 674.741V674.731Z" fill="#F39B34"/>
<path d="M367.237 674.731C366.217 675.971 366.587 677.291 368.357 678.711C383.407 772.091 274.007 804.181 204.857 761.051C211.067 765.951 212.527 768.841 209.237 769.741C196.697 758.691 186.757 749.971 185.257 732.221C177.007 634.681 315.707 599.831 367.237 674.741V674.731Z" fill="#F39B34"/>
<path d="M264.958 664.021C267.558 666.611 267.848 673.101 266.478 676.481C265.248 679.521 248.818 698.981 245.718 701.721C225.958 719.161 203.898 704.731 217.028 681.031C221.558 672.841 238.848 662.371 247.978 660.991C251.818 660.401 262.188 661.271 264.958 664.031V664.021Z" fill="#FBE7B3"/>
</svg>
