<svg width="24" height="24" viewBox="0 0 24 24" fill="none" xmlns="http://www.w3.org/2000/svg">
<g clip-path="url(#clip0_228_12441)">
<rect width="24" height="24" rx="12" fill="#E9FCFF"/>
<path d="M11.092 5.52799C10.7769 5.52173 10.2808 5.59016 9.65601 5.7656C8.28088 6.15175 6.49818 6.99219 5.12209 8.26059L4.85296 8.52064C3.11538 10.2676 2.6605 13.1133 4.00259 14.9773L4.13858 15.1542C5.75753 17.1507 8.64829 18.5638 11.5271 18.5789L11.8052 18.576C13.0551 18.543 14.0229 18.4304 14.8384 18.0986C15.5361 17.8147 16.1502 17.3586 16.7304 16.5923L16.9771 16.2445C18.3704 14.1543 17.9355 11.3193 16.0129 9.90713L15.8223 9.77469C13.6146 8.3326 12.1611 8.00739 11.379 7.72693C11.1898 7.65903 10.9765 7.57291 10.8127 7.43915C10.6119 7.27522 10.4856 7.04021 10.5027 6.74769C10.5164 6.51293 10.6226 6.28603 10.7343 6.0872C10.8257 5.92455 10.9475 5.73947 11.092 5.52799Z" fill="#EEEEEE" stroke="#444444"/>
<circle cx="1.24359" cy="1.24359" r="0.743585" transform="matrix(-0.994787 -0.101976 -0.101976 0.994787 15.47 12.418)" fill="#333333" stroke="#444444"/>
<circle cx="1.24359" cy="1.24359" r="0.743585" transform="matrix(-0.994787 -0.101976 -0.101976 0.994787 9.41098 10.547)" fill="#333333" stroke="#444444"/>
<path d="M10.7983 12.9007C10.6519 12.8474 10.546 12.8168 10.4671 12.8059C10.4485 12.8033 10.4339 12.8039 10.4233 12.8036C10.4189 12.8124 10.4109 12.8233 10.4051 12.8396C10.2655 13.2258 10.4661 13.6518 10.8523 13.7914C11.2384 13.9307 11.6643 13.7311 11.8038 13.3451C11.8138 13.3176 11.8186 13.294 11.8238 13.2755C11.7968 13.2637 11.7606 13.2483 11.7112 13.2306C11.6545 13.2103 11.5922 13.1897 11.517 13.1646C11.4441 13.1403 11.362 13.1127 11.2751 13.0813C11.1885 13.05 11.1028 13.0169 11.0238 12.9864C10.9431 12.9551 10.8694 12.9266 10.7983 12.9007Z" fill="#333333" stroke="#444444"/>
<circle cx="3.71226" cy="15.0193" r="1.90135" transform="rotate(43.8128 3.71226 15.0193)" fill="#EEEEEE" stroke="#444444"/>
<circle cx="20.2877" cy="9.62593" r="1.90135" transform="rotate(43.8128 20.2877 9.62593)" fill="#EEEEEE" stroke="#444444"/>
</g>
<defs>
<clipPath id="clip0_228_12441">
<rect width="24" height="24" rx="12" fill="white"/>
</clipPath>
</defs>
</svg>
