<svg width="393" height="54" viewBox="0 0 393 54" fill="none" xmlns="http://www.w3.org/2000/svg">
<path d="M57.6904 23.063C58.3324 23.063 58.9411 23.182 59.5166 23.4199C60.0921 23.6523 60.6012 24.0176 61.0439 24.5156C61.4922 25.0081 61.8436 25.6418 62.0981 26.4165C62.3527 27.1857 62.48 28.1126 62.48 29.1973V29.2139C62.48 30.5586 62.2863 31.7096 61.8989 32.667C61.5116 33.6243 60.9554 34.3604 60.2305 34.875C59.5111 35.3841 58.6506 35.6387 57.6489 35.6387C56.9129 35.6387 56.2489 35.5059 55.6567 35.2402C55.0701 34.9691 54.5832 34.5983 54.1958 34.1279C53.814 33.652 53.5566 33.1097 53.4238 32.501L53.4072 32.4097H55.5073L55.5405 32.4927C55.6457 32.7694 55.7951 33.0129 55.9888 33.2231C56.188 33.4334 56.4259 33.5967 56.7026 33.7129C56.9849 33.8236 57.3003 33.8789 57.6489 33.8789C58.2798 33.8789 58.7944 33.6935 59.1929 33.3228C59.5968 32.9465 59.8984 32.4456 60.0977 31.8203C60.3024 31.1895 60.4186 30.4922 60.4463 29.7285C60.4518 29.6455 60.4546 29.5653 60.4546 29.4878C60.4546 29.4048 60.4546 29.3245 60.4546 29.2471L60.0811 27.2466C60.0811 26.7928 59.9759 26.3805 59.7656 26.0098C59.5553 25.639 59.2703 25.3457 58.9106 25.1299C58.5565 24.9141 58.1553 24.8062 57.707 24.8062C57.2754 24.8062 56.8797 24.9113 56.52 25.1216C56.1603 25.3319 55.8726 25.6196 55.6567 25.9849C55.4409 26.3446 55.333 26.7485 55.333 27.1968V27.2134C55.333 27.6782 55.4354 28.0905 55.6401 28.4502C55.8449 28.8044 56.1243 29.0838 56.4785 29.2886C56.8327 29.4933 57.2367 29.5957 57.6904 29.5957C58.1442 29.5957 58.5509 29.4961 58.9106 29.2969C59.2703 29.0977 59.5553 28.821 59.7656 28.4668C59.9759 28.1126 60.0811 27.7114 60.0811 27.2632V27.2466H60.5791V29.4546H60.2886C60.1447 29.77 59.9316 30.0633 59.6494 30.3345C59.3672 30.6056 59.0186 30.8242 58.6035 30.9902C58.194 31.1562 57.7126 31.2393 57.1592 31.2393C56.3955 31.2393 55.7204 31.0677 55.1338 30.7246C54.5472 30.3815 54.0851 29.9111 53.7476 29.3135C53.4155 28.7158 53.2495 28.0407 53.2495 27.2881V27.2715C53.2495 26.458 53.4377 25.7358 53.814 25.105C54.1958 24.4686 54.7215 23.9705 55.3911 23.6108C56.0662 23.2456 56.8327 23.063 57.6904 23.063ZM66.2485 33.7295C65.8722 33.7295 65.5568 33.605 65.3022 33.356C65.0532 33.1014 64.9287 32.7915 64.9287 32.4263C64.9287 32.0555 65.0532 31.7456 65.3022 31.4966C65.5568 31.242 65.8722 31.1147 66.2485 31.1147C66.6304 31.1147 66.9458 31.242 67.1948 31.4966C67.4438 31.7456 67.5684 32.0555 67.5684 32.4263C67.5684 32.7915 67.4438 33.1014 67.1948 33.356C66.9458 33.605 66.6304 33.7295 66.2485 33.7295ZM66.2485 27.5703C65.8722 27.5703 65.5568 27.4458 65.3022 27.1968C65.0532 26.9422 64.9287 26.6323 64.9287 26.2671C64.9287 25.8963 65.0532 25.5864 65.3022 25.3374C65.5568 25.0828 65.8722 24.9556 66.2485 24.9556C66.6304 24.9556 66.9458 25.0828 67.1948 25.3374C67.4438 25.5864 67.5684 25.8963 67.5684 26.2671C67.5684 26.6323 67.4438 26.9422 67.1948 27.1968C66.9458 27.4458 66.6304 27.5703 66.2485 27.5703ZM75.8276 35.3398V33.0405H69.9673V31.2891C70.2827 30.7523 70.5981 30.2127 70.9136 29.6704C71.2345 29.1281 71.5583 28.5885 71.8848 28.0518C72.2168 27.5094 72.5461 26.9754 72.8726 26.4497C73.2046 25.9185 73.5339 25.3955 73.8604 24.8809C74.1924 24.3607 74.5244 23.8543 74.8564 23.3618H77.8696V31.2725H79.4883V33.0405H77.8696V35.3398H75.8276ZM71.9595 31.3223H75.8608V25.0718H75.7363C75.4928 25.4481 75.241 25.8354 74.981 26.2339C74.7264 26.6323 74.4691 27.0391 74.209 27.4541C73.9489 27.8691 73.6916 28.2869 73.437 28.7075C73.1825 29.1226 72.9307 29.5404 72.6816 29.9609C72.4326 30.376 72.1919 30.7882 71.9595 31.1978V31.3223ZM84.4438 35.3398V25.4702H84.2944L81.3145 27.5703V25.5615L84.4438 23.3618H86.5771V35.3398H84.4438Z" fill="black"/>
<rect opacity="0.35" x="334" y="23.5" width="24" height="12" rx="3.8" stroke="black"/>
<path opacity="0.4" d="M359.5 27.7812V31.8567C360.305 31.5116 360.828 30.7086 360.828 29.819C360.828 28.9294 360.305 28.1264 359.5 27.7812Z" fill="black"/>
<rect x="335.5" y="25" width="21" height="9" rx="2.5" fill="black"/>
<path fill-rule="evenodd" clip-rule="evenodd" d="M317.771 26.104C320.258 26.1041 322.65 27.0262 324.452 28.6796C324.588 28.8073 324.805 28.8057 324.939 28.676L326.236 27.4126C326.304 27.3468 326.341 27.2577 326.341 27.165C326.34 27.0724 326.302 26.9837 326.233 26.9187C321.502 22.544 314.038 22.544 309.307 26.9187C309.239 26.9837 309.2 27.0723 309.199 27.165C309.199 27.2577 309.236 27.3468 309.304 27.4126L310.602 28.676C310.735 28.8059 310.952 28.8075 311.088 28.6796C312.891 27.0261 315.283 26.104 317.771 26.104ZM317.767 30.3243C319.124 30.3242 320.433 30.8359 321.439 31.76C321.576 31.8912 321.79 31.8883 321.923 31.7536L323.21 30.4343C323.278 30.3651 323.315 30.2712 323.314 30.1737C323.313 30.0761 323.274 29.9831 323.205 29.9153C320.141 27.0244 315.396 27.0244 312.332 29.9153C312.263 29.9831 312.224 30.0762 312.223 30.1738C312.222 30.2714 312.26 30.3652 312.327 30.4343L313.614 31.7536C313.747 31.8883 313.961 31.8912 314.097 31.76C315.103 30.8365 316.411 30.3248 317.767 30.3243ZM320.292 33.1178C320.294 33.2232 320.256 33.3247 320.189 33.3985L318.012 35.8533C317.949 35.9254 317.862 35.966 317.771 35.966C317.68 35.966 317.593 35.9254 317.529 35.8533L315.352 33.3985C315.285 33.3247 315.248 33.2231 315.25 33.1177C315.252 33.0124 315.293 32.9126 315.363 32.842C316.753 31.5281 318.789 31.5281 320.179 32.842C320.249 32.9127 320.29 33.0125 320.292 33.1178Z" fill="black"/>
<path fill-rule="evenodd" clip-rule="evenodd" d="M301.7 24.6824C301.7 24.0493 301.222 23.5361 300.633 23.5361H299.567C298.978 23.5361 298.5 24.0493 298.5 24.6824V34.6163C298.5 35.2494 298.978 35.7625 299.567 35.7625H300.633C301.222 35.7625 301.7 35.2494 301.7 34.6163V24.6824ZM294.266 25.9814H295.333C295.922 25.9814 296.399 26.5069 296.399 27.1552V34.5888C296.399 35.237 295.922 35.7625 295.333 35.7625H294.266C293.677 35.7625 293.199 35.237 293.199 34.5888V27.1552C293.199 26.5069 293.677 25.9814 294.266 25.9814ZM289.934 28.6305H288.867C288.278 28.6305 287.801 29.1627 287.801 29.8191V34.5739C287.801 35.2303 288.278 35.7625 288.867 35.7625H289.934C290.523 35.7625 291.001 35.2303 291.001 34.5739V29.8191C291.001 29.1627 290.523 28.6305 289.934 28.6305ZM284.633 31.0758H283.567C282.978 31.0758 282.5 31.6003 282.5 32.2475V34.5909C282.5 35.238 282.978 35.7625 283.567 35.7625H284.633C285.222 35.7625 285.7 35.238 285.7 34.5909V32.2475C285.7 31.6003 285.222 31.0758 284.633 31.0758Z" fill="black"/>
</svg>
